<?xml version="1.0" encoding="UTF-8"?>
<svg id="Ebene_1" data-name="Ebene 1" xmlns="http://www.w3.org/2000/svg" xmlns:xlink="http://www.w3.org/1999/xlink" viewBox="0 0 1440 900">
  <defs>
    <style>
      .cls-1 {
        clip-path: url(#clippath);
      }

      .cls-2 {
        fill: none;
      }

      .cls-2, .cls-3 {
        stroke-width: 0px;
      }

      .cls-4 {
        clip-path: url(#clippath-1);
      }

      .cls-3 {
        fill: red;
      }
    </style>
    <clipPath id="clippath">
      <rect class="cls-2" x="-1" width="1440" height="900"/>
    </clipPath>
    <clipPath id="clippath-1">
      <rect class="cls-2" x="-294.76" y="-511.29" width="1820.72" height="1922.58"/>
    </clipPath>
  </defs>
  <g class="cls-1">
    <g class="cls-4">
      <path class="cls-3" d="M1246.73,558.3c0,47.44-30.46,136.05-95.8,136.05v-102.04c0-47.44,7.22-63.55,36.76-84.14v-58.18h-.06v-108.3c0-47.44,40.28-136.05,105.62-136.05v102.04c0,47.44-17.01,63.55-46.54,84.14v58.18h.03v108.3ZM1022.94,531.9c-26.07,29.33-60.69,44.08-103.83,44.29-83.72-.41-143.32-65.51-143.32-126.18,0-25.06,13.13-52.36,39.38-81.9,26.07-29.33,60.69-44.09,103.83-44.29,83.72.41,143.32,65.51,143.32,126.18,0,25.06-13.13,52.36-39.38,81.9M650.48,558.3c0,47.44-40.28,136.05-105.62,136.05v-102.04c0-47.44,17.01-63.55,46.54-84.14v-58.18h.17v-108.3c0-47.44,30.26-136.05,95.6-136.05v102.04c0,47.44-7.06,63.55-36.6,84.14v58.18h-.1v108.3ZM1269.97,770.43h138.73c0-70.71,33.12-127.1,117.25-127.1v-67.13c-84.14,0-144.1-65.34-144.1-126.2,0-25.06,13.13-52.36,39.38-81.9,26.26-29.54,61.16-44.31,104.72-44.31v-194.23h-73.39v160.22c-8.35,28.04-24.47,52.06-48.33,72.05-23.87,19.99-53.7,29.98-89.51,29.98V129.57h-88.61c0,61.76-36.7,127.1-96.67,127.1v135.15c-53.7,0-125.31-59.97-137.84-102.04,12.53-42.07,49.23-102.04,111.88-102.04h70.71v-58.18h-138.73c0,70.23-32.7,126.31-115.58,127.06v-127.06h-73.4v160.22c-8.35,28.04-24.46,52.06-48.33,72.05-23.87,19.99-53.7,29.98-89.5,29.98V129.57h-88.61c0,61.76-36.7,127.1-96.67,127.1v135.15c-53.7,0-125.31-59.97-137.84-102.04,12.53-42.07,49.23-102.04,111.88-102.04h70.71v-58.18h-138.73c0,70.71-33.12,127.1-117.25,127.1v67.13c84.14,0,144.1,65.34,144.1,126.2,0,25.06-13.13,52.36-39.38,81.9-26.26,29.54-61.16,44.3-104.72,44.3v194.23h73.39v-160.22c8.35-28.04,24.47-52.06,48.33-72.05,23.87-19.99,53.7-29.98,89.51-29.98v262.25h88.61c0-61.76,36.7-127.1,96.67-127.1v-135.15c53.7,0,125.31,59.97,137.84,102.04-12.53,42.07-49.23,102.04-111.88,102.04h-70.71v58.18h138.73c0-70.23,32.69-126.31,115.58-127.06v127.06h73.39v-160.22c8.35-28.04,24.47-52.06,48.33-72.05,23.87-19.99,53.7-29.98,89.51-29.98v262.25h88.61c0-61.76,36.7-127.1,96.67-127.1v-135.15c53.7,0,125.31,59.97,137.84,102.04-12.53,42.07-49.23,102.04-111.88,102.04h-70.71v58.18Z"/>
      <path class="cls-3" d="M639.83,1199.16c0,47.44-30.46,136.05-95.8,136.05v-102.04c0-47.44,7.22-63.55,36.76-84.14v-58.18h-.06v-108.3c0-47.44,40.28-136.05,105.62-136.05v102.04c0,47.44-17.01,63.55-46.54,84.14v58.18h.03v108.3ZM416.03,1172.76c-26.07,29.33-60.69,44.08-103.83,44.29-83.72-.41-143.32-65.51-143.32-126.18,0-25.06,13.13-52.36,39.38-81.9,26.07-29.33,60.69-44.08,103.83-44.29,83.72.41,143.32,65.51,143.32,126.18,0,25.06-13.13,52.36-39.38,81.9M43.57,1199.16c0,47.44-40.28,136.05-105.62,136.05v-102.04c0-47.44,17.01-63.55,46.54-84.14v-58.18h.17v-108.3c0-47.44,30.26-136.05,95.6-136.05v102.04c0,47.44-7.06,63.55-36.6,84.14v58.18h-.1v108.3ZM663.07,1410.29h138.73c0-70.71,33.12-127.1,117.25-127.1v-67.13c-84.14,0-144.1-65.34-144.1-126.2,0-25.06,13.13-52.36,39.38-81.9,26.26-29.54,61.16-44.3,104.72-44.3v-194.23h-73.39v160.21c-8.35,28.04-24.47,52.06-48.33,72.05-23.87,19.99-53.7,29.98-89.51,29.98v-262.25h-88.61c0,61.76-36.7,127.1-96.67,127.1v135.15c-53.7,0-125.31-59.97-137.84-102.04,12.53-42.07,49.23-102.04,111.88-102.04h70.71v-58.18h-138.73c0,70.23-32.7,126.31-115.58,127.06v-127.06h-73.39v160.21c-8.35,28.04-24.46,52.06-48.33,72.05-23.87,19.99-53.7,29.98-89.51,29.98v-262.25H13.14c0,61.76-36.7,127.1-96.67,127.1v135.15c-53.7,0-125.31-59.97-137.84-102.04,12.53-42.07,49.23-102.04,111.88-102.04H-38.77v-58.18h-138.73c0,70.71-33.12,127.1-117.25,127.1v67.13c84.14,0,144.1,65.34,144.1,126.2,0,25.06-13.13,52.36-39.38,81.9s-61.16,44.3-104.72,44.3v194.23h73.39v-160.21c8.35-28.04,24.47-52.06,48.33-72.05,23.87-19.99,53.7-29.98,89.51-29.98v262.25H5.09c0-61.76,36.7-127.1,96.67-127.1v-135.15c53.7,0,125.31,59.97,137.84,102.04-12.53,42.07-49.23,102.04-111.88,102.04H57v58.18h138.73c0-70.23,32.69-126.31,115.58-127.06v127.06h73.39v-160.21c8.36-28.04,24.47-52.06,48.33-72.05,23.87-19.99,53.7-29.98,89.51-29.98v262.25h88.61c0-61.76,36.7-127.1,96.67-127.1v-135.15c53.7,0,125.31,59.97,137.84,102.04-12.53,42.07-49.23,102.04-111.88,102.04h-70.71v58.18Z"/>
      <path class="cls-3" d="M639.83-81.56c0,47.44-30.46,136.05-95.8,136.05V-47.55c0-47.44,7.22-63.55,36.76-84.14v-58.18h-.06v-108.3c0-47.44,40.28-136.05,105.62-136.05v102.04c0,47.44-17.01,63.55-46.54,84.14v58.18h.03v108.3ZM416.03-107.96c-26.07,29.33-60.69,44.08-103.83,44.29-83.72-.41-143.32-65.51-143.32-126.18,0-25.06,13.13-52.36,39.38-81.9,26.07-29.33,60.69-44.08,103.83-44.29,83.72.41,143.32,65.51,143.32,126.18,0,25.06-13.13,52.36-39.38,81.9M43.57-81.56C43.57-34.12,3.3,54.49-62.04,54.49V-47.55c0-47.44,17.01-63.55,46.54-84.14v-58.18h.17v-108.3c0-47.44,30.26-136.05,95.6-136.05v102.04c0,47.44-7.06,63.55-36.6,84.14v58.18h-.1v108.3ZM663.07,130.57h138.73c0-70.71,33.12-127.1,117.25-127.1V-63.66c-84.14,0-144.1-65.34-144.1-126.2,0-25.06,13.13-52.36,39.38-81.9s61.16-44.31,104.72-44.31v-194.23h-73.39v160.21c-8.35,28.05-24.47,52.06-48.33,72.05-23.87,19.99-53.7,29.98-89.51,29.98v-262.25h-88.61c0,61.76-36.7,127.1-96.67,127.1v135.15c-53.7,0-125.31-59.97-137.84-102.04,12.53-42.07,49.23-102.04,111.88-102.04h70.71v-58.18h-138.73c0,70.23-32.7,126.31-115.58,127.06v-127.06h-73.39v160.21c-8.35,28.05-24.46,52.06-48.33,72.05-23.87,19.99-53.7,29.98-89.51,29.98v-262.25H13.14c0,61.76-36.7,127.1-96.67,127.1v135.15c-53.7,0-125.31-59.97-137.84-102.04,12.53-42.07,49.23-102.04,111.88-102.04H-38.77v-58.18h-138.73c0,70.71-33.12,127.1-117.25,127.1v67.13c84.14,0,144.1,65.34,144.1,126.2,0,25.06-13.13,52.36-39.38,81.9-26.26,29.54-61.16,44.31-104.72,44.31v194.23h73.39V-29.64c8.35-28.05,24.47-52.06,48.33-72.05,23.87-19.99,53.7-29.98,89.51-29.98V130.57H5.09C5.09,68.81,41.78,3.47,101.75,3.47v-135.15c53.7,0,125.31,59.97,137.84,102.04-12.53,42.07-49.23,102.04-111.88,102.04H57v58.18h138.73c0-70.23,32.69-126.31,115.58-127.06v127.06h73.39V-29.64c8.36-28.05,24.47-52.06,48.33-72.05,23.87-19.99,53.7-29.98,89.51-29.98V130.57h88.61c0-61.76,36.7-127.1,96.67-127.1v-135.15c53.7,0,125.31,59.97,137.84,102.04-12.53,42.07-49.23,102.04-111.88,102.04h-70.71v58.18Z"/>
    </g>
  </g>
</svg>