<?xml version="1.0" encoding="UTF-8"?>
<svg id="Ebene_1" data-name="Ebene 1" xmlns="http://www.w3.org/2000/svg" xmlns:xlink="http://www.w3.org/1999/xlink" viewBox="0 0 1440 900">
  <defs>
    <style>
      .cls-1 {
        clip-path: url(#clippath);
      }

      .cls-2 {
        fill: none;
      }

      .cls-2, .cls-3 {
        stroke-width: 0px;
      }

      .cls-4 {
        clip-path: url(#clippath-1);
      }

      .cls-3 {
        fill: red;
      }
    </style>
    <clipPath id="clippath">
      <rect class="cls-2" x="-1" y="1.52" width="1440" height="900"/>
    </clipPath>
    <clipPath id="clippath-1">
      <rect class="cls-2" x="-391.63" y="-400.48" width="2223.25" height="1867.38"/>
    </clipPath>
  </defs>
  <g class="cls-1">
    <g class="cls-4">
      <path class="cls-3" d="M586.22,812.83v88.93h-88.93c0-59.29-18.54-105.51-55.58-138.66-37.06-33.16-77.81-49.73-122.28-49.73V235.97h88.93v-1.17c0,29.63,17.15,56.17,51.49,79.57,34.32,23.4,71.17,40.16,110.57,50.31,39.39,10.13,74.3,15.21,104.73,15.21h88.93v274.97h-88.93v-132.22c0-37.45-15.21-69.44-45.63-95.95-30.42-26.53-65.15-45.05-104.14-55.58-39.02-10.53-78.01-15.8-117.01-15.8v269.12c0,56.16,19.49,101.6,58.51,136.31,39,34.71,78.78,52.07,119.35,52.07"/>
      <path class="cls-3" d="M497.29,59.76V-29.17h88.93c0,59.29,18.54,105.51,55.58,138.66,37.06,33.16,77.81,49.73,122.28,49.73v477.39h-88.93v1.17c0-29.63-17.15-56.16-51.49-79.57-34.32-23.4-71.17-40.16-110.57-50.31-39.39-10.13-74.3-15.21-104.73-15.21h-88.93V217.72h88.93v132.22c0,37.45,15.21,69.44,45.63,95.95,30.42,26.53,65.14,45.05,104.14,55.58,39.01,10.53,78.01,15.8,117.01,15.8V248.15c0-56.16-19.49-101.6-58.51-136.31-39-34.7-78.78-52.07-119.35-52.07"/>
      <path class="cls-3" d="M228.87,818.03v88.93h-88.93c0-59.29-18.54-105.51-55.58-138.66-37.06-33.16-77.81-49.73-122.28-49.73V241.17H51.01v-1.17c0,29.63,17.15,56.17,51.49,79.57,34.32,23.4,71.17,40.16,110.57,50.31,39.39,10.13,74.3,15.21,104.73,15.21h88.93v274.97h-88.93v-132.22c0-37.45-15.21-69.44-45.63-95.95-30.42-26.52-65.14-45.05-104.14-55.58-39.01-10.53-78.01-15.8-117.01-15.8v269.12c0,56.16,19.49,101.6,58.51,136.31,39,34.7,78.78,52.07,119.35,52.07"/>
      <path class="cls-3" d="M139.94,64.96V-23.97h88.93c0,59.29,18.54,105.51,55.58,138.66,37.06,33.16,77.81,49.73,122.28,49.73v477.39h-88.93v1.17c0-29.63-17.15-56.16-51.49-79.57-34.32-23.4-71.17-40.16-110.57-50.31-39.39-10.13-74.3-15.21-104.73-15.21H-37.92V222.92H51.01v132.22c0,37.45,15.21,69.44,45.63,95.95,30.42,26.52,65.15,45.05,104.14,55.58,39.02,10.53,78.01,15.8,117.01,15.8V253.34c0-56.16-19.49-101.6-58.51-136.31-39-34.7-78.78-52.07-119.35-52.07"/>
      <path class="cls-3" d="M-124.84,812.83v88.93h-88.93c0-59.29-18.54-105.51-55.58-138.66-37.06-33.16-77.81-49.73-122.28-49.73V235.97h88.93v-1.17c0,29.63,17.15,56.17,51.49,79.57,34.32,23.4,71.17,40.16,110.57,50.31,39.38,10.13,74.3,15.21,104.73,15.21H53.02v274.97H-35.91v-132.22c0-37.45-15.21-69.44-45.63-95.95-30.42-26.53-65.15-45.05-104.14-55.58-39.01-10.53-78.01-15.8-117.01-15.8v269.12c0,56.16,19.49,101.6,58.51,136.31,39,34.71,78.78,52.07,119.35,52.07"/>
      <path class="cls-3" d="M-213.77,59.76V-29.17h88.93c0,59.29,18.54,105.51,55.58,138.66,37.06,33.16,77.81,49.73,122.28,49.73v477.39H-35.91v1.17c0-29.63-17.15-56.16-51.49-79.57-34.32-23.4-71.17-40.16-110.57-50.31-39.39-10.13-74.3-15.21-104.73-15.21h-88.93V217.72h88.93v132.22c0,37.45,15.21,69.44,45.63,95.95,30.42,26.53,65.15,45.05,104.14,55.58,39.01,10.53,78.01,15.8,117.01,15.8V248.15c0-56.16-19.49-101.6-58.51-136.31-39-34.7-78.78-52.07-119.35-52.07"/>
      <path class="cls-3" d="M1653.77,1372.77v88.93h-88.93c0-59.29-18.54-105.51-55.58-138.66-37.06-33.16-77.81-49.73-122.28-49.73v-477.39h88.93v-1.17c0,29.63,17.15,56.16,51.49,79.57,34.32,23.4,71.17,40.16,110.57,50.31,39.39,10.13,74.3,15.21,104.73,15.21h88.93v274.97h-88.93v-132.22c0-37.45-15.21-69.44-45.63-95.95-30.42-26.53-65.15-45.05-104.14-55.58-39.02-10.53-78.01-15.79-117.01-15.79v269.12c0,56.16,19.49,101.6,58.51,136.31,39,34.71,78.78,52.07,119.35,52.07"/>
      <path class="cls-3" d="M1564.84,618.71v-88.93h88.93c0,59.29,18.54,105.51,55.58,138.66,37.06,33.16,77.81,49.73,122.28,49.73v477.39h-88.93v1.17c0-29.63-17.15-56.16-51.49-79.57-34.32-23.4-71.17-40.16-110.57-50.31-39.39-10.13-74.3-15.21-104.73-15.21h-88.93v-274.97h88.93v132.22c0,37.45,15.21,69.44,45.63,95.95,30.42,26.53,65.15,45.05,104.14,55.58,39.01,10.53,78.01,15.8,117.01,15.8v-269.12c0-56.16-19.49-101.6-58.5-136.31-39-34.7-78.78-52.07-119.35-52.07"/>
      <path class="cls-3" d="M1296.42,1377.97v88.93h-88.93c0-59.29-18.54-105.51-55.58-138.66-37.06-33.16-77.81-49.73-122.28-49.73v-477.39h88.93v-1.17c0,29.63,17.15,56.17,51.49,79.57,34.32,23.4,71.17,40.16,110.57,50.31,39.39,10.13,74.3,15.21,104.73,15.21h88.93v274.97h-88.93v-132.22c0-37.45-15.21-69.44-45.63-95.95-30.42-26.52-65.15-45.05-104.14-55.58-39.01-10.53-78.01-15.8-117.01-15.8v269.12c0,56.16,19.49,101.6,58.5,136.31,39,34.7,78.78,52.07,119.35,52.07"/>
      <path class="cls-3" d="M1207.49,623.91v-88.93h88.93c0,59.29,18.54,105.51,55.58,138.66,37.06,33.16,77.81,49.73,122.28,49.73v477.39h-88.93v1.17c0-29.63-17.15-56.16-51.49-79.57-34.32-23.4-71.17-40.16-110.57-50.31-39.39-10.13-74.3-15.21-104.73-15.21h-88.93v-274.97h88.93v132.22c0,37.45,15.21,69.44,45.63,95.95,30.42,26.52,65.15,45.05,104.14,55.58,39.01,10.53,78.01,15.8,117.01,15.8v-269.12c0-56.17-19.49-101.6-58.5-136.31-39-34.7-78.78-52.07-119.35-52.07"/>
      <path class="cls-3" d="M942.71,1372.77v88.93h-88.93c0-59.29-18.54-105.51-55.58-138.66-37.06-33.16-77.81-49.73-122.28-49.73v-477.39h88.93v-1.17c0,29.63,17.15,56.16,51.49,79.57,34.32,23.4,71.17,40.16,110.57,50.31,39.39,10.13,74.3,15.21,104.72,15.21h88.93v274.97h-88.93v-132.22c0-37.45-15.21-69.44-45.63-95.95-30.42-26.53-65.15-45.05-104.14-55.58-39.01-10.53-78.01-15.79-117.01-15.79v269.12c0,56.16,19.49,101.6,58.5,136.31,39,34.71,78.78,52.07,119.35,52.07"/>
      <path class="cls-3" d="M853.78,618.71v-88.93h88.93c0,59.29,18.54,105.51,55.58,138.66,37.06,33.16,77.81,49.73,122.28,49.73v477.39h-88.93v1.17c0-29.63-17.15-56.16-51.49-79.57-34.32-23.4-71.17-40.16-110.57-50.31-39.39-10.13-74.3-15.21-104.73-15.21h-88.93v-274.97h88.93v132.22c0,37.45,15.21,69.44,45.63,95.95,30.42,26.53,65.15,45.05,104.14,55.58,39.01,10.53,78.01,15.8,117.01,15.8v-269.12c0-56.16-19.49-101.6-58.51-136.31-39-34.7-78.78-52.07-119.35-52.07"/>
      <path class="cls-3" d="M1653.77,441.51v88.93h-88.93c0-59.29-18.54-105.51-55.58-138.66-37.06-33.16-77.81-49.73-122.28-49.73V-135.34h88.93v-1.17c0,29.63,17.15,56.16,51.49,79.57,34.32,23.4,71.17,40.16,110.57,50.31,39.39,10.13,74.3,15.21,104.73,15.21h88.93v274.97h-88.93v-132.22c0-37.45-15.21-69.44-45.63-95.95-30.42-26.53-65.15-45.05-104.14-55.58-39.02-10.53-78.01-15.8-117.01-15.8V253.12c0,56.17,19.49,101.6,58.51,136.31,39,34.7,78.78,52.07,119.35,52.07"/>
      <path class="cls-3" d="M1564.84-311.56v-88.93h88.93c0,59.29,18.54,105.51,55.58,138.66,37.06,33.16,77.81,49.73,122.28,49.73v477.39h-88.93v1.17c0-29.63-17.15-56.16-51.49-79.57-34.32-23.4-71.17-40.16-110.57-50.31-39.39-10.13-74.3-15.21-104.73-15.21h-88.93V-153.59h88.93V-21.38c0,37.45,15.21,69.44,45.63,95.95,30.42,26.53,65.15,45.05,104.14,55.58,39.01,10.53,78.01,15.8,117.01,15.8V-123.17c0-56.16-19.49-101.6-58.5-136.31-39-34.7-78.78-52.07-119.35-52.07"/>
      <path class="cls-3" d="M1296.42,446.71v88.93h-88.93c0-59.29-18.54-105.51-55.58-138.66-37.06-33.16-77.81-49.73-122.28-49.73V-130.14h88.93v-1.17c0,29.63,17.15,56.17,51.49,79.57,34.32,23.4,71.17,40.16,110.57,50.31,39.39,10.13,74.3,15.21,104.73,15.21h88.93v274.97h-88.93v-132.22c0-37.45-15.21-69.44-45.63-95.95-30.42-26.53-65.15-45.05-104.14-55.58-39.01-10.53-78.01-15.8-117.01-15.8v269.12c0,56.16,19.49,101.6,58.5,136.31,39,34.7,78.78,52.07,119.35,52.07"/>
      <path class="cls-3" d="M1207.49-306.36v-88.93h88.93c0,59.29,18.54,105.51,55.58,138.66,37.06,33.16,77.81,49.73,122.28,49.73v477.39h-88.93v1.17c0-29.63-17.15-56.16-51.49-79.57-34.32-23.4-71.17-40.16-110.57-50.31-39.39-10.13-74.3-15.21-104.73-15.21h-88.93V-148.39h88.93V-16.18c0,37.45,15.21,69.44,45.63,95.95,30.42,26.53,65.15,45.05,104.14,55.58,39.01,10.53,78.01,15.8,117.01,15.8V-117.97c0-56.16-19.49-101.6-58.5-136.31-39-34.7-78.78-52.07-119.35-52.07"/>
      <path class="cls-3" d="M942.71,441.51v88.93h-88.93c0-59.29-18.54-105.51-55.58-138.66-37.06-33.16-77.81-49.73-122.28-49.73V-135.34h88.93v-1.17c0,29.63,17.15,56.16,51.49,79.57,34.32,23.4,71.17,40.16,110.57,50.31,39.39,10.13,74.3,15.21,104.72,15.21h88.93v274.97h-88.93v-132.22c0-37.45-15.21-69.44-45.63-95.95-30.42-26.53-65.15-45.05-104.14-55.58-39.01-10.53-78.01-15.8-117.01-15.8V253.12c0,56.17,19.49,101.6,58.5,136.31,39,34.7,78.78,52.07,119.35,52.07"/>
      <path class="cls-3" d="M853.78-311.56v-88.93h88.93c0,59.29,18.54,105.51,55.58,138.66,37.06,33.16,77.81,49.73,122.28,49.73v477.39h-88.93v1.17c0-29.63-17.15-56.16-51.49-79.57-34.32-23.4-71.17-40.16-110.57-50.31-39.39-10.13-74.3-15.21-104.73-15.21h-88.93V-153.59h88.93V-21.38c0,37.45,15.21,69.44,45.63,95.95,30.42,26.53,65.15,45.05,104.14,55.58,39.01,10.53,78.01,15.8,117.01,15.8V-123.17c0-56.16-19.49-101.6-58.51-136.31-39-34.7-78.78-52.07-119.35-52.07"/>
    </g>
  </g>
</svg>